<svg xmlns="http://www.w3.org/2000/svg" id="prefix__Layer_1" width="45.489" height="45.488" data-name="Layer 1" viewBox="0 0 45.489 45.488">
    <defs>
        <style>
            .prefix__cls-1{fill:#231f20}
        </style>
    </defs>
    <g id="prefix___Group_" data-name="&lt;Group&gt;">
        <path id="prefix___Path_" d="M45.488 45.488H0V0h33.489a1.254 1.254 0 010 2.507H2.507v40.474h40.474V12a1.254 1.254 0 112.507 0z" class="prefix__cls-1" data-name="&lt;Path&gt;"/>
    </g>
    <g id="prefix___Group_2" data-name="&lt;Group&gt;" transform="translate(6.656 7.163)">
        <path id="prefix___Path_2" d="M123.335 102.507H94.174a1.254 1.254 0 110-2.507h29.161a1.254 1.254 0 110 2.507z" class="prefix__cls-1" data-name="&lt;Path&gt;" transform="translate(-92.92 -100)"/>
    </g>
    <g id="prefix___Group_3" data-name="&lt;Group&gt;" transform="translate(7.032 7.521)">
        <path id="prefix___Path_3" d="M0 0h40.883v2.507H0z" class="prefix__cls-1" data-name="&lt;Path&gt;" transform="rotate(-44.5 35.021 14.328)"/>
    </g>
    <g id="prefix___Group_4" data-name="&lt;Group&gt;" transform="translate(6.656 35.817)">
        <path id="prefix___Path_4" d="M123.335 502.507H94.174a1.254 1.254 0 110-2.507h29.161a1.254 1.254 0 110 2.507z" class="prefix__cls-1" data-name="&lt;Path&gt;" transform="translate(-92.92 -500)"/>
    </g>
    <g id="prefix___Group_5" data-name="&lt;Group&gt;" transform="translate(42.899 .045)">
        <circle id="prefix__Ellipse_34" cx="1" cy="1" r="1" class="prefix__cls-1" data-name="Ellipse 34" transform="translate(.434 .49)"/>
    </g>
</svg>
